<svg width="138" height="127" viewBox="0 0 138 127" fill="none" xmlns="http://www.w3.org/2000/svg">
<path d="M43.58 4.66872H58.8956C59.7357 4.669 60.5445 5.00586 61.1584 5.61124C61.7723 6.21662 62.1456 7.04539 62.2028 7.93008C62.2601 8.81477 61.9971 9.68942 61.4669 10.3773C60.9367 11.0652 60.1789 11.515 59.3465 11.6359L58.8956 11.6685H43.58C41.06 11.6681 38.6338 12.6772 36.7914 14.4918C34.949 16.3065 33.8277 18.7915 33.6541 21.445L33.632 22.1683V66.5005C33.6328 69.1602 34.5899 71.7204 36.3101 73.6642C38.0302 75.6079 40.3851 76.7901 42.8991 76.9722L43.58 77.0002H85.5828C88.1043 77.0017 90.5322 75.9925 92.3757 74.1768C94.2191 72.361 95.3405 69.8742 95.5131 67.2191L95.5352 66.5005V64.1765C95.5355 63.2898 95.8546 62.4362 96.4282 61.7882C97.0018 61.1403 97.787 60.7463 98.6252 60.6858C99.4634 60.6254 100.292 60.903 100.944 61.4626C101.596 62.0222 102.022 62.822 102.136 63.7005L102.167 64.1765V66.5005C102.166 70.9803 100.538 75.2892 97.617 78.5396C94.6962 81.79 90.7055 83.7343 86.4671 83.972L85.5828 84H43.58C39.3348 84.0003 35.2512 82.282 32.1707 79.199C29.0902 76.1161 27.2474 71.9034 27.0221 67.4291L27 66.4958V22.1636C27.0008 17.6845 28.6287 13.3763 31.5486 10.126C34.4685 6.87576 38.4581 4.93094 42.6958 4.69206L43.58 4.66872ZM77.8631 16.5404V3.50209C77.8627 2.85832 78.0306 2.22691 78.3482 1.67732C78.6659 1.12773 79.121 0.681249 79.6635 0.386996C80.206 0.0927434 80.8148 -0.0378815 81.4231 0.00948941C82.0314 0.0568603 82.6155 0.280392 83.1113 0.655495L83.4738 0.97282L109.98 27.8055C111.218 29.0608 111.328 31.072 110.316 32.4627L109.98 32.8593L83.4738 59.7013C83.0337 60.1474 82.4855 60.4567 81.8896 60.5951C81.2937 60.7336 80.6731 60.6958 80.0962 60.4859C79.5194 60.276 79.0085 59.9022 78.62 59.4056C78.2314 58.909 77.9803 58.3089 77.8941 57.6713L77.8631 57.172V44.101L76.4483 44.0684C64.6964 44.031 54.6511 49.1269 46.0914 59.4773C43.9028 62.1232 39.7909 60.0886 40.3215 56.6167C43.978 32.6307 56.2339 19.079 76.5323 16.6804L77.8631 16.5404Z" fill="url(#paint0_linear_6_1153)"/>
<path d="M42.072 102.424C41.832 102.4 41.688 101.524 41.64 99.796C41.736 99.316 41.928 98.692 42.216 97.924C42.504 97.132 42.912 96.208 43.44 95.152C43.584 95.104 43.692 95.08 43.764 95.08C44.196 95.08 44.412 95.524 44.412 96.412C44.172 96.796 43.932 97.192 43.692 97.6C43.452 97.984 43.224 98.368 43.008 98.752C42.36 100 42.048 101.224 42.072 102.424ZM31.956 126.04C28.284 126.04 25.44 125.164 23.424 123.412C21.768 121.924 20.94 120.028 20.94 117.724C20.94 115.132 22.008 113.02 24.144 111.388C26.064 109.9 28.26 109.144 30.732 109.12C32.796 109.12 34.416 109.648 35.592 110.704C36.624 111.664 37.14 112.84 37.14 114.232C37.14 115.648 36.636 116.86 35.628 117.868C34.476 118.972 33.012 119.524 31.236 119.524C31.02 119.524 30.912 119.488 30.912 119.416C30.912 119.272 31.02 119.188 31.236 119.164C32.004 118.996 32.688 118.756 33.288 118.444C33.912 118.132 34.44 117.724 34.872 117.22C35.688 116.332 36.096 115.3 36.096 114.124C36.096 112.828 35.628 111.772 34.692 110.956C33.732 110.068 32.46 109.624 30.876 109.624C28.716 109.624 26.82 110.332 25.188 111.748C23.412 113.236 22.524 115.132 22.524 117.436C22.524 119.692 23.208 121.504 24.576 122.872C26.16 124.552 28.536 125.392 31.704 125.392C34.8 125.392 37.392 124.468 39.48 122.62C41.76 120.652 42.9 118.168 42.9 115.168C42.9 112.984 42.06 110.908 40.38 108.94L36.456 104.908C35.736 104.164 35.208 103.432 34.872 102.712C34.56 101.968 34.404 101.26 34.404 100.588C34.404 99.1 34.98 97.912 36.132 97.024C37.236 96.136 38.52 95.692 39.984 95.692C40.56 95.692 41.136 95.776 41.712 95.944C42.288 96.112 42.576 96.316 42.576 96.556C42.576 96.676 42.504 96.736 42.36 96.736C42.288 96.736 42 96.628 41.496 96.412C41.088 96.244 40.668 96.16 40.236 96.16C39.156 96.16 38.196 96.556 37.356 97.348C36.54 98.164 36.132 99.1 36.132 100.156C36.132 101.356 36.696 102.556 37.824 103.756L41.496 107.176C42.672 108.256 43.536 109.432 44.088 110.704C44.664 111.952 44.952 113.272 44.952 114.664C44.952 117.88 43.572 120.616 40.812 122.872C38.22 124.984 35.268 126.04 31.956 126.04ZM40.632 114.232C40.512 114.28 40.452 114.208 40.452 114.016C40.284 112.84 39.804 111.64 39.012 110.416C38.964 110.776 38.892 111.184 38.796 111.64C38.34 111.712 37.932 111.556 37.572 111.172C37.524 111.1 37.464 110.992 37.392 110.848C37.344 110.704 37.32 110.536 37.32 110.344V110.092C37.32 109.828 37.356 109.648 37.428 109.552C37.932 109.912 38.352 110.056 38.688 109.984C38.136 109.192 37.5 108.472 36.78 107.824C36.06 107.152 35.28 106.552 34.44 106.024C32.688 104.968 31.14 104.44 29.796 104.44C28.356 104.44 27.36 105.04 26.808 106.24C27.072 106.048 27.336 105.952 27.6 105.952C27.888 105.952 28.164 106.036 28.428 106.204C28.908 106.54 29.136 106.924 29.112 107.356C28.8 107.212 28.464 107.14 28.104 107.14C27.432 107.14 26.94 107.428 26.628 108.004C26.364 107.596 26.232 107.248 26.232 106.96C26.232 106.6 26.4 106.156 26.736 105.628C27.432 104.476 28.512 103.9 29.976 103.9C32.16 103.9 34.416 104.98 36.744 107.14C37.944 108.196 38.916 109.288 39.66 110.416C40.404 111.52 40.776 112.672 40.776 113.872V113.98C40.776 114.1 40.728 114.184 40.632 114.232ZM49.605 121.756C49.317 121.756 49.017 121.636 48.705 121.396C48.417 121.18 48.273 120.928 48.273 120.64C48.273 119.872 48.573 118.504 49.173 116.536C50.085 113.536 51.237 110.74 52.629 108.148C54.693 104.212 56.649 102.244 58.497 102.244C59.625 102.244 60.189 103.18 60.189 105.052C60.189 106.42 59.181 108.136 57.165 110.2L52.521 114.52C52.353 114.688 52.161 114.892 51.945 115.132C51.753 115.348 51.525 115.612 51.261 115.924C51.093 116.188 50.841 116.752 50.505 117.616C50.217 118.48 50.073 119.08 50.073 119.416C50.073 119.68 50.133 119.908 50.253 120.1C50.301 120.052 50.433 119.944 50.649 119.776C50.889 119.584 51.201 119.32 51.585 118.984C53.889 117.04 55.581 116.068 56.661 116.068C56.877 116.068 57.057 116.248 57.201 116.608C57.369 116.968 57.537 117.496 57.705 118.192C58.113 119.704 58.749 120.46 59.613 120.46C60.381 120.46 61.401 119.86 62.673 118.66C62.889 118.42 63.105 118.18 63.321 117.94C63.561 117.676 63.777 117.424 63.969 117.184C64.089 116.992 64.209 116.896 64.329 116.896C64.473 116.896 64.509 116.992 64.437 117.184C64.413 117.28 64.365 117.4 64.293 117.544C64.221 117.664 64.161 117.748 64.113 117.796C63.633 118.444 63.153 119.032 62.673 119.56C62.073 120.136 61.473 120.592 60.873 120.928C60.273 121.264 59.697 121.432 59.145 121.432C58.641 121.432 58.161 121.288 57.705 121C57.273 120.688 56.889 120.208 56.553 119.56C55.881 118.264 55.377 117.616 55.041 117.616C54.585 117.616 54.009 117.868 53.313 118.372C52.617 118.852 51.825 119.608 50.937 120.64L50.073 121.648C49.905 121.72 49.749 121.756 49.605 121.756ZM51.585 114.448C52.377 113.896 53.181 113.248 53.997 112.504C54.837 111.736 55.677 110.896 56.517 109.984C58.605 107.632 59.649 105.808 59.649 104.512C59.649 103.744 59.349 103.36 58.749 103.36C57.117 103.36 54.981 106.408 52.341 112.504C51.837 113.608 51.585 114.256 51.585 114.448ZM64.3639 121.216C63.3799 121.216 62.8879 120.736 62.8879 119.776C62.8879 118.864 63.5479 117.592 64.8679 115.96C66.0679 114.448 67.1119 113.404 67.9999 112.828C68.8879 112.252 69.7159 111.964 70.4839 111.964C71.3959 111.964 71.8519 112.228 71.8519 112.756C71.8519 112.876 71.7319 113.056 71.4919 113.296C71.2519 113.512 71.1199 113.644 71.0959 113.692C70.6399 114.436 70.4119 115.948 70.4119 118.228C70.4119 119.548 70.6999 120.208 71.2759 120.208C71.8039 120.208 72.4159 119.896 73.1119 119.272C73.8079 118.648 74.4559 117.952 75.0559 117.184C75.1279 117.112 75.1879 117.076 75.2359 117.076C75.3319 117.076 75.3799 117.136 75.3799 117.256C75.3799 117.304 75.3559 117.388 75.3079 117.508C75.2839 117.628 75.2479 117.724 75.1999 117.796C74.2159 119.116 73.3639 120.004 72.6439 120.46C71.9479 120.916 71.2639 121.144 70.5919 121.144C69.5119 121.144 68.9839 119.992 69.0079 117.688C68.5519 118.504 67.8919 119.272 67.0279 119.992C66.0199 120.808 65.1319 121.216 64.3639 121.216ZM65.3359 120.244C65.7439 120.244 66.1759 120.076 66.6319 119.74C68.0479 118.612 68.9719 116.5 69.4039 113.404C69.3319 113.404 69.2839 113.392 69.2599 113.368C68.7799 113.368 68.1439 113.656 67.3519 114.232C66.6799 114.688 66.1399 115.18 65.7319 115.708C64.7719 116.956 64.2919 118.036 64.2919 118.948C64.2919 119.812 64.6399 120.244 65.3359 120.244ZM80.8021 121.18C79.9381 121.18 79.5061 120.64 79.5061 119.56C79.5061 118.984 79.7221 118.264 80.1541 117.4C80.5621 116.44 80.7661 115.744 80.7661 115.312C80.7661 115 80.6461 114.76 80.4061 114.592C80.1901 114.424 79.9141 114.268 79.5781 114.124C79.3381 114.004 79.0861 113.86 78.8221 113.692C78.5581 113.524 78.3421 113.356 78.1741 113.188C78.0061 113.548 77.6341 114.172 77.0581 115.06C76.4821 115.948 75.8581 116.86 75.1861 117.796C75.0901 117.916 74.9941 117.976 74.8981 117.976C74.8021 117.976 74.7541 117.892 74.7541 117.724C74.7541 117.556 74.8501 117.376 75.0421 117.184C75.2341 116.944 75.5101 116.56 75.8701 116.032C76.2301 115.48 76.5901 114.892 76.9501 114.268C77.3101 113.62 77.5861 113.056 77.7781 112.576C77.6581 112.168 77.5621 111.82 77.4901 111.532C77.4181 111.244 77.3821 110.956 77.3821 110.668C77.3821 110.164 77.5261 109.708 77.8141 109.3C78.1021 108.892 78.4741 108.688 78.9301 108.688C79.5781 108.688 79.9021 109.072 79.9021 109.84C79.9021 110.68 79.5781 111.556 78.9301 112.468C79.0261 112.612 79.1461 112.732 79.2901 112.828C79.4341 112.924 79.6621 113.032 79.9741 113.152C80.1421 113.224 80.2981 113.272 80.4421 113.296C80.6101 113.32 80.7541 113.332 80.8741 113.332C81.0661 113.332 81.2221 113.32 81.3421 113.296C81.4861 113.272 81.6061 113.26 81.7021 113.26C81.8461 113.26 82.0141 113.344 82.2061 113.512C82.4221 113.656 82.5301 113.884 82.5301 114.196C82.5301 114.364 82.5181 114.472 82.4941 114.52C82.4701 114.568 82.3981 114.772 82.2781 115.132C82.1821 115.468 82.0021 115.948 81.7381 116.572C81.2581 117.82 81.0181 118.696 81.0181 119.2C81.0181 119.872 81.2461 120.208 81.7021 120.208C82.2061 120.208 82.8061 119.908 83.5021 119.308C84.2221 118.708 84.8821 118 85.4821 117.184C85.5541 117.112 85.6141 117.076 85.6621 117.076C85.7581 117.076 85.8061 117.16 85.8061 117.328C85.8061 117.496 85.7461 117.652 85.6261 117.796C84.6661 119.068 83.8021 119.956 83.0341 120.46C82.2661 120.94 81.5221 121.18 80.8021 121.18ZM89.0483 121.288C88.0643 121.288 87.2123 121.012 86.4923 120.46C85.7963 119.884 85.4483 119.02 85.4483 117.868C85.4483 116.596 85.8683 115.288 86.7083 113.944C87.1403 113.248 87.6683 112.696 88.2923 112.288C88.9163 111.856 89.4683 111.64 89.9483 111.64C90.6443 111.64 90.9923 112.06 90.9923 112.9C90.9923 113.62 90.5123 114.496 89.5523 115.528C88.6643 116.44 87.8243 117.064 87.0323 117.4C87.0083 117.496 86.9843 117.604 86.9603 117.724C86.9603 117.82 86.9603 117.928 86.9603 118.048C86.9603 119.56 87.8603 120.316 89.6603 120.316C90.6923 120.316 91.6523 120.004 92.5403 119.38C93.4523 118.732 94.2443 118 94.9163 117.184C95.0363 117.04 95.1443 116.968 95.2403 116.968C95.3363 116.968 95.3843 117.016 95.3843 117.112C95.3843 117.208 95.3363 117.34 95.2403 117.508C95.1443 117.652 95.0723 117.748 95.0243 117.796C94.6403 118.324 94.2323 118.792 93.8003 119.2C93.3923 119.608 92.8403 120.004 92.1443 120.388C91.6403 120.7 91.1123 120.928 90.5603 121.072C90.0323 121.216 89.5283 121.288 89.0483 121.288ZM87.1763 116.644C87.4883 116.476 87.7883 116.284 88.0763 116.068C88.3883 115.828 88.6883 115.552 88.9763 115.24C89.6243 114.472 89.9483 113.8 89.9483 113.224C89.9483 112.864 89.8403 112.684 89.6243 112.684C89.4323 112.684 89.1803 112.852 88.8683 113.188C88.5803 113.5 88.3043 113.896 88.0403 114.376C87.5843 115.312 87.2963 116.068 87.1763 116.644ZM103.772 110.056C103.484 110.056 103.22 109.924 102.98 109.66C102.74 109.396 102.62 109.12 102.62 108.832C102.62 108.16 102.992 107.824 103.736 107.824C104.456 107.824 104.816 108.172 104.816 108.868C104.816 109.66 104.468 110.056 103.772 110.056ZM103.304 121.288C102.488 121.288 101.804 121.012 101.252 120.46C100.724 119.884 100.46 119.056 100.46 117.976C100.46 116.656 100.82 115.312 101.54 113.944C101.804 113.44 102.26 113.188 102.908 113.188C103.292 113.188 103.484 113.308 103.484 113.548C103.484 113.62 103.448 113.728 103.376 113.872C102.536 115.48 102.116 116.86 102.116 118.012C102.116 118.852 102.26 119.464 102.548 119.848C102.86 120.232 103.28 120.424 103.808 120.424C104.648 120.424 105.488 120.112 106.328 119.488C107.168 118.84 107.984 118.06 108.776 117.148C108.848 117.028 108.956 116.968 109.1 116.968C109.196 116.968 109.244 117.016 109.244 117.112C109.244 117.184 109.196 117.292 109.1 117.436C109.028 117.556 108.956 117.676 108.884 117.796C108.572 118.204 108.2 118.624 107.768 119.056C107.336 119.488 106.832 119.896 106.256 120.28C105.8 120.592 105.308 120.832 104.78 121C104.276 121.192 103.784 121.288 103.304 121.288ZM113.221 121.432C111.829 121.432 110.737 121.024 109.945 120.208C109.177 119.392 108.793 118.252 108.793 116.788C108.793 115.588 109.009 114.412 109.441 113.26C108.721 113.26 108.157 113.188 107.749 113.044C107.077 112.9 106.741 112.648 106.741 112.288C106.741 112.144 106.849 112.072 107.065 112.072C107.233 112.072 107.425 112.084 107.641 112.108C107.881 112.108 108.157 112.12 108.469 112.144C108.805 112.168 109.093 112.192 109.333 112.216C109.573 112.216 109.765 112.216 109.909 112.216L111.169 109.264C111.457 108.568 111.721 108.004 111.961 107.572C112.201 107.14 112.393 106.84 112.537 106.672C112.897 106.288 113.377 106.096 113.977 106.096C114.553 106.096 114.841 106.216 114.841 106.456L113.581 108.436C113.125 109.156 112.717 109.84 112.357 110.488C112.021 111.136 111.721 111.748 111.457 112.324C112.945 112.324 114.133 112.324 115.021 112.324C115.909 112.3 116.509 112.288 116.821 112.288H117.109C117.397 112.288 117.541 112.324 117.541 112.396C117.541 112.54 117.253 112.672 116.677 112.792C115.645 112.912 114.673 113.008 113.761 113.08C112.849 113.152 111.985 113.188 111.169 113.188C110.929 113.812 110.725 114.472 110.557 115.168C110.413 115.84 110.341 116.488 110.341 117.112C110.341 118.048 110.557 118.864 110.989 119.56C111.421 120.256 112.189 120.604 113.293 120.604C114.613 120.604 115.657 120.292 116.425 119.668C117.217 119.02 118.021 118.192 118.837 117.184C118.957 117.04 119.065 116.968 119.161 116.968C119.233 116.968 119.269 117.028 119.269 117.148C119.269 117.316 119.173 117.532 118.981 117.796C117.949 119.116 116.977 120.052 116.065 120.604C115.177 121.156 114.229 121.432 113.221 121.432Z" fill="url(#paint1_linear_6_1153)"/>
<defs>
<linearGradient id="paint0_linear_6_1153" x1="37.5" y1="19.5" x2="91.5" y2="67.5" gradientUnits="userSpaceOnUse">
<stop stop-color="#3B82F6"/>
<stop offset="0.0001" stop-color="#3D81F6"/>
<stop offset="1" stop-color="#D946EF"/>
</linearGradient>
<linearGradient id="paint1_linear_6_1153" x1="55.6731" y1="105" x2="78.3247" y2="122.319" gradientUnits="userSpaceOnUse">
<stop stop-color="#3B82F6"/>
<stop offset="0.0001" stop-color="#3D81F6"/>
<stop offset="1" stop-color="#D946EF"/>
</linearGradient>
</defs>
</svg>
