<svg width="300" height="296" viewBox="0 0 300 296" fill="none" xmlns="http://www.w3.org/2000/svg">
<ellipse cx="137.079" cy="137.082" rx="137.082" ry="137.082" fill="#F5F8FF" fill-opacity="0.5"/>
<circle cx="137.079" cy="137.082" r="106.619" fill="#E4ECFE" fill-opacity="0.5"/>
<path d="M104.675 116.573H37.5487C36.0823 116.573 34.8936 115.384 34.8936 113.918V23.6901C34.8936 22.2237 36.0823 21.0349 37.5487 21.0349H89.6813L107.33 37.3264V113.918C107.33 115.384 106.142 116.573 104.675 116.573Z" fill="#F5F8FF" fill-opacity="0.5" stroke="#B7CEFF" stroke-width="2"/>
<path fill-rule="evenodd" clip-rule="evenodd" d="M42.9927 41.1017C42.9927 39.922 43.9491 38.9656 45.1288 38.9656H86.4904C87.6702 38.9656 88.6266 39.922 88.6266 41.1017C88.6266 42.2815 87.6702 43.2379 86.4904 43.2379H45.1288C43.9491 43.2379 42.9927 42.2815 42.9927 41.1017ZM42.9927 54.2686C42.9927 53.0889 43.9491 52.1325 45.1288 52.1325H98.4986C99.6784 52.1325 100.635 53.0889 100.635 54.2686C100.635 55.4484 99.6784 56.4048 98.4986 56.4048H45.1288C43.9491 56.4048 42.9927 55.4484 42.9927 54.2686ZM42.9927 67.4355C42.9927 66.2557 43.9491 65.2993 45.1288 65.2993H59.8055C60.9853 65.2993 61.9417 66.2557 61.9417 67.4355C61.9417 68.6153 60.9853 69.5717 59.8055 69.5717H45.1288C43.9491 69.5717 42.9927 68.6153 42.9927 67.4355ZM67.0091 67.4355C67.0091 66.2557 67.9655 65.2993 69.1452 65.2993H98.4986C99.6784 65.2993 100.635 66.2557 100.635 67.4355C100.635 68.6153 99.6784 69.5717 98.4986 69.5717H69.1452C67.9655 69.5717 67.0091 68.6153 67.0091 67.4355ZM42.9927 80.6024C42.9927 79.4226 43.9491 78.4662 45.1288 78.4662H83.8219C85.0017 78.4662 85.9581 79.4226 85.9581 80.6024C85.9581 81.7822 85.0017 82.7386 83.8219 82.7386H45.1288C43.9491 82.7386 42.9927 81.7822 42.9927 80.6024ZM91.0255 80.6024C91.0255 79.4226 91.9819 78.4662 93.1616 78.4662H98.4986C99.6784 78.4662 100.635 79.4226 100.635 80.6024C100.635 81.7822 99.6784 82.7386 98.4986 82.7386H93.1616C91.9819 82.7386 91.0255 81.7822 91.0255 80.6024ZM42.9927 92.4526C42.9927 91.2728 43.9491 90.3164 45.1288 90.3164H94.4959C95.6757 90.3164 96.632 91.2728 96.632 92.4526C96.632 93.6324 95.6757 94.5888 94.4959 94.5888H45.1288C43.9491 94.5888 42.9927 93.6324 42.9927 92.4526ZM42.9927 104.303C42.9927 103.123 43.9491 102.167 45.1288 102.167H81.1534C82.3332 102.167 83.2896 103.123 83.2896 104.303C83.2896 105.483 82.3332 106.439 81.1534 106.439H45.1288C43.9491 106.439 42.9927 105.483 42.9927 104.303Z" fill="#B7CEFF"/>
<path d="M42.9927 41.1017C42.9927 39.922 43.9491 38.9656 45.1288 38.9656H86.4904C87.6702 38.9656 88.6266 39.922 88.6266 41.1017C88.6266 42.2815 87.6702 43.2379 86.4904 43.2379H45.1288C43.9491 43.2379 42.9927 42.2815 42.9927 41.1017Z" fill="#2D56B2"/>
<path d="M90.0718 20.0352L108.33 36.8888H94.0718C91.8626 36.8888 90.0718 35.0979 90.0718 32.8888V20.0352Z" fill="#B7CEFF"/>
<rect width="33.2217" height="5.72787" rx="2.86394" transform="matrix(-0.707107 0.707107 0.707107 0.707107 46.043 47.3657)" fill="#2D56B2"/>
<rect width="33.2217" height="5.72787" rx="2.86394" transform="matrix(0.707107 0.707107 0.707107 -0.707107 22.5522 51.416)" fill="#2D56B2"/>
<circle cx="59.4097" cy="127.078" r="9.79158" stroke="#5388FE" stroke-width="4"/>
<circle cx="263.006" cy="157" r="8.1373" stroke="#2D56B2" stroke-width="4"/>
<circle cx="22.8007" cy="173.922" r="2.50378" stroke="#4F86FF" stroke-width="3"/>
<path d="M141.902 279.587C191.234 279.587 231.226 277.252 231.226 274.372C231.226 271.492 191.234 269.157 141.902 269.157C92.569 269.157 52.5771 271.492 52.5771 274.372C52.5771 277.252 92.569 279.587 141.902 279.587Z" fill="#B7CEFF"/>
<path d="M188.872 197.985L202.293 184.563L257.6 231.768C264.374 237.55 264.781 247.878 258.484 254.175V254.175C252.187 260.472 241.859 260.065 236.077 253.291L188.872 197.985Z" fill="#1A3166"/>
<path d="M198.401 209.15L236.078 253.292C241.859 260.066 252.187 260.473 258.484 254.176C264.781 247.879 264.374 237.551 257.6 231.769L208.325 189.711C206.342 196.86 202.929 203.442 198.401 209.15Z" fill="#2D56B2"/>
<path d="M173.547 117.446L138.856 197.986C138.322 197.572 137.792 197.144 137.272 196.711C133.92 193.876 131 190.544 128.609 186.827L158.574 117.259C163.538 116.441 168.603 116.505 173.547 117.446Z" fill="white" fill-opacity="0.5"/>
<path d="M198.208 131.418L165.592 207.141C158.817 207.149 152.131 205.563 146.052 202.507L181.667 119.817C187.976 122.339 193.635 126.308 198.208 131.418Z" fill="white" fill-opacity="0.5"/>
<path fill-rule="evenodd" clip-rule="evenodd" d="M145.763 128.579C139.447 132.689 134.444 138.637 131.408 145.685C128.371 152.735 127.445 160.556 128.753 168.154C130.061 175.75 133.541 182.762 138.731 188.308C143.92 193.853 150.584 197.683 157.871 199.337C165.157 200.991 172.759 200.4 179.723 197.634L179.724 197.634C184.35 195.797 188.586 193.043 192.186 189.523C195.786 186.002 198.681 181.783 200.697 177.103C202.713 172.422 203.809 167.377 203.92 162.255C204.03 157.134 203.152 152.043 201.339 147.275L201.339 147.274C198.609 140.093 193.865 133.922 187.73 129.528C181.597 125.136 174.342 122.711 166.885 122.542C159.427 122.374 152.077 124.469 145.763 128.579ZM119.737 140.658C123.751 131.338 130.389 123.423 138.831 117.928C147.275 112.432 157.138 109.611 167.171 109.838C177.205 110.064 186.934 113.327 195.13 119.197C203.323 125.065 209.61 133.27 213.217 142.759C215.613 149.06 216.77 155.777 216.625 162.529C216.479 169.281 215.034 175.941 212.368 182.13C209.702 188.319 205.865 193.92 201.071 198.608C196.276 203.297 190.617 206.982 184.414 209.445C175.07 213.156 164.852 213.952 155.058 211.73C145.266 209.507 136.358 204.37 129.453 196.992C122.549 189.615 117.954 180.327 116.229 170.31C114.505 160.293 115.723 149.976 119.737 140.658Z" fill="#2D56B2"/>
<path d="M252.639 232.21L212.792 199.581C211.557 198.57 210.118 199.992 211.118 201.236L243.295 241.256C244.536 242.8 246.329 243.803 248.196 243.999L249.301 244.114C253.117 244.513 255.987 241.498 255.425 237.682L255.294 236.794C255.036 235.045 254.075 233.386 252.639 232.21Z" fill="#9FBDFF"/>
<rect width="51.6928" height="8.91255" rx="4.45627" transform="matrix(-0.707107 0.707107 0.707107 0.707107 180.901 139.841)" fill="#2D56B2"/>
<rect width="51.6928" height="8.91255" rx="4.45627" transform="matrix(0.707107 0.707107 0.707107 -0.707107 144.349 146.143)" fill="#2D56B2"/>
<rect width="28.8712" height="4.97779" rx="2.4889" transform="matrix(-0.707107 0.707107 0.707107 0.707107 250.473 83.4539)" fill="#5388FE"/>
<rect width="28.8712" height="4.97779" rx="2.4889" transform="matrix(0.707107 0.707107 0.707107 -0.707107 230.058 86.9731)" fill="#5388FE"/>
<rect width="24.4859" height="4.22171" rx="2.11085" transform="matrix(-0.707107 0.707107 0.707107 0.707107 100.765 241.339)" fill="#2D56B2"/>
<rect width="24.4859" height="4.22171" rx="2.11085" transform="matrix(0.707107 0.707107 0.707107 -0.707107 83.4507 244.324)" fill="#2D56B2"/>
</svg>
