<svg width="52" height="48" viewBox="0 0 52 48" fill="none" xmlns="http://www.w3.org/2000/svg">
<path d="M11.4743 2.66784H20.226C20.7061 2.668 21.1683 2.86049 21.5191 3.20642C21.8699 3.55235 22.0832 4.02594 22.1159 4.53147C22.1486 5.03701 21.9983 5.53681 21.6954 5.92989C21.3924 6.32296 20.9593 6.58 20.4837 6.64907L20.226 6.66774H11.4743C10.0343 6.66751 8.64787 7.24409 7.59507 8.28104C6.54227 9.31799 5.90155 10.738 5.80235 12.2543L5.78972 12.6676V38.0003C5.79019 39.5201 6.33711 40.9831 7.32004 42.0938C8.30296 43.2045 9.64863 43.8801 11.0852 43.9841L11.4743 44.0001H35.4759C36.9167 44.001 38.3041 43.4243 39.3575 42.3867C40.4109 41.3492 41.0517 39.9281 41.1504 38.4109L41.163 38.0003V36.6723C41.1631 36.1656 41.3455 35.6778 41.6733 35.3076C42.001 34.9373 42.4497 34.7122 42.9287 34.6776C43.4077 34.6431 43.8812 34.8017 44.2536 35.1215C44.626 35.4413 44.8696 35.8983 44.935 36.4003L44.9527 36.6723V38.0003C44.9522 40.5602 44.0216 43.0224 42.3526 44.8798C40.6835 46.7371 38.4032 47.8482 35.9812 47.984L35.4759 48H11.4743C9.04848 48.0002 6.71499 47.0183 4.95468 45.2566C3.19437 43.4949 2.14136 41.0877 2.01263 38.5309L2 37.9976V12.6649C2.00043 10.1055 2.93069 7.64359 4.59921 5.7863C6.26773 3.929 8.54748 2.81768 10.969 2.68118L11.4743 2.66784ZM31.0646 9.45167V2.00119C31.0644 1.63332 31.1603 1.27252 31.3418 0.958468C31.5233 0.644415 31.7834 0.389285 32.0934 0.221141C32.4034 0.0529962 32.7513 -0.0216465 33.0989 0.00542252C33.4465 0.0324916 33.7803 0.160224 34.0636 0.374569L34.2707 0.555897L49.417 15.8888C50.1244 16.6061 50.1876 17.7555 49.609 18.5501L49.417 18.7768L34.2707 34.115C34.0193 34.3699 33.706 34.5467 33.3655 34.6258C33.025 34.7049 32.6704 34.6833 32.3407 34.5634C32.0111 34.4434 31.7192 34.2298 31.4971 33.9461C31.2751 33.6623 31.1316 33.3194 31.0823 32.9551L31.0646 32.6697V25.2006L30.2562 25.1819C23.5408 25.1606 17.8006 28.0725 12.9093 33.987C11.6587 35.499 9.30911 34.3364 9.61229 32.3524C11.7017 18.6461 18.7051 10.9023 30.3042 9.53166L31.0646 9.45167Z" fill="url(#paint0_linear_6_1157)"/>
<defs>
<linearGradient id="paint0_linear_6_1157" x1="8" y1="11.1429" x2="38.8571" y2="38.5714" gradientUnits="userSpaceOnUse">
<stop stop-color="#3B82F6"/>
<stop offset="0.0001" stop-color="#3D81F6"/>
<stop offset="1" stop-color="#D946EF"/>
</linearGradient>
</defs>
</svg>
